<?xml version="1.0" encoding="UTF-8" standalone="no"?>
<svg
   xmlns:dc="http://purl.org/dc/elements/1.1/"
   xmlns:cc="http://creativecommons.org/ns#"
   xmlns:rdf="http://www.w3.org/1999/02/22-rdf-syntax-ns#"
   xmlns:svg="http://www.w3.org/2000/svg"
   xmlns="http://www.w3.org/2000/svg"
   viewBox="0 0 793.70135 1122.52"
   height="1122.52"
   width="793.70135"
   xml:space="preserve"
   id="svg2"
   version="1.1"><metadata
     id="metadata8"><rdf:RDF><cc:Work
         rdf:about=""><dc:format>image/svg+xml</dc:format><dc:type
           rdf:resource="http://purl.org/dc/dcmitype/StillImage" /></cc:Work></rdf:RDF></metadata><defs
     id="defs6"><clipPath
       id="clipPath64"
       clipPathUnits="userSpaceOnUse"><path
         id="path62"
         d="M 0,841.89 H 595.276 V 0 H 0 Z" /></clipPath></defs><g
     transform="matrix(1.3333333,0,0,-1.3333333,0,1122.52)"
     id="g10"><path
       id="path12"
       style="fill:#b77246;fill-opacity:1;fill-rule:nonzero;stroke:none"
       d="M 217.417,614.879 H 63.659 v 22.682 h 153.758 z" /><path
       id="path14"
       style="fill:#b77246;fill-opacity:1;fill-rule:nonzero;stroke:none"
       d="M 271.483,568.879 H 63.659 v 22.682 h 207.824 z" /><path
       id="path16"
       style="fill:#100f0d;fill-opacity:1;fill-rule:nonzero;stroke:none"
       d="m 271.483,614.879 h -30.33 v 22.682 h 30.33 z" /><path
       id="path18"
       style="fill:#100f0d;fill-opacity:1;fill-rule:nonzero;stroke:none"
       d="M 533.901,614.879 H 295.615 v 22.682 h 238.286 z" /><path
       id="path20"
       style="fill:#100f0d;fill-opacity:1;fill-rule:nonzero;stroke:none"
       d="M 533.901,568.879 H 295.615 v 22.682 h 238.286 z" /><path
       id="path22"
       style="fill:#100f0d;fill-opacity:1;fill-rule:nonzero;stroke:none"
       d="M 534.429,232.67 H 295.616 v 22.682 h 238.813 z" /><path
       id="path24"
       style="fill:#100f0d;fill-opacity:1;fill-rule:nonzero;stroke:none"
       d="m 382.45,185.44 h -86.835 v 22.681 h 86.835 z" /><path
       id="path26"
       style="fill:#100f0d;fill-opacity:1;fill-rule:nonzero;stroke:none"
       d="M 382.45,138.208 H 295.615 V 160.89 H 382.45 Z" /><path
       id="path28"
       style="fill:#100f0d;fill-opacity:1;fill-rule:nonzero;stroke:none"
       d="M 534.429,185.44 H 402.825 v 22.681 h 131.604 z" /><path
       id="path30"
       style="fill:#100f0d;fill-opacity:1;fill-rule:nonzero;stroke:none"
       d="M 534.429,138.208 H 402.825 v 22.682 h 131.604 z" /><path
       id="path32"
       style="fill:#100f0d;fill-opacity:1;fill-rule:nonzero;stroke:none"
       d="m 534.429,347.846 h -33.297 v 22.682 h 33.297 z" /><path
       id="path34"
       style="fill:#100f0d;fill-opacity:1;fill-rule:nonzero;stroke:none"
       d="m 534.429,313.032 h -33.297 v 22.682 h 33.297 z" /><path
       id="path36"
       style="fill:#100f0d;fill-opacity:1;fill-rule:nonzero;stroke:none"
       d="m 534.429,279.901 h -33.297 v 22.682 h 33.297 z" /><path
       id="path38"
       style="fill:#b77246;fill-opacity:1;fill-rule:nonzero;stroke:none"
       d="M 101.374,232.67 H 63.66 v 22.682 h 37.714 z" /><path
       id="path40"
       style="fill:#b77246;fill-opacity:1;fill-rule:nonzero;stroke:none"
       d="m 534.429,393.396 h -33.297 v 22.681 h 33.297 z" /><path
       id="path42"
       style="fill:#b77246;fill-opacity:1;fill-rule:nonzero;stroke:none"
       d="M 154.385,185.44 H 63.659 v 22.681 h 90.726 z" /><path
       id="path44"
       style="fill:#b77246;fill-opacity:1;fill-rule:nonzero;stroke:none"
       d="M 212.934,138.208 H 63.659 v 22.682 h 149.275 z" /><path
       id="path46"
       style="fill:#b77246;fill-opacity:1;fill-rule:nonzero;stroke:none"
       d="m 212.934,138.208 h -36 v 116.803 h 36 z" /><path
       id="path48"
       style="fill:#b77246;fill-opacity:1;fill-rule:nonzero;stroke:none"
       d="m 152.539,232.67 h -22.682 v 22.682 h 22.682 z" /><path
       id="path50"
       style="fill:#231f20;fill-opacity:1;fill-rule:nonzero;stroke:none"
       d="m 149.637,313.032 h -22.681 v 22.682 h 22.681 z" /><path
       id="path52"
       style="fill:#231f20;fill-opacity:1;fill-rule:nonzero;stroke:none"
       d="m 149.637,353.214 h -22.681 v 22.682 h 22.681 z" /><path
       id="path54"
       style="fill:#231f20;fill-opacity:1;fill-rule:nonzero;stroke:none"
       d="m 149.637,393.396 h -22.681 v 22.681 h 22.681 z" /><path
       id="path56"
       style="fill:#231f20;fill-opacity:1;fill-rule:nonzero;stroke:none"
       d="m 149.637,433.577 h -22.681 v 22.681 h 22.681 z" /><g
       id="g58"><g
         clip-path="url(#clipPath64)"
         id="g60"><g
           transform="translate(537.0332,458.7306)"
           id="g66"><path
             id="path68"
             style="fill:#231f20;fill-opacity:1;fill-rule:nonzero;stroke:none"
             d="m 0,0 c 0,-10.633 -8.62,-19.253 -19.253,-19.253 -10.633,0 -19.253,8.62 -19.253,19.253 0,10.633 8.62,19.252 19.253,19.252 C -8.62,19.252 0,10.633 0,0" /></g><g
           transform="translate(431.3076,500.4171)"
           id="g70"><path
             id="path72"
             style="fill:#231f20;fill-opacity:1;fill-rule:nonzero;stroke:none"
             d="M 0,0 V -220.517 H 44.308 V 0 h 58.286 V 41.143 H -53.802 c 0,0 9.494,-10.286 16.615,-22.154 7.122,-11.868 9.495,-19.78 9.495,-19.78 z" /></g><g
           transform="translate(309.3623,541.5602)"
           id="g74"><path
             id="path76"
             style="fill:#231f20;fill-opacity:1;fill-rule:nonzero;stroke:none"
             d="M 0,0 C -40.365,0 -73.087,-34.007 -73.087,-75.956 V -261.66 h 41.538 v 184.723 c 0,17.146 13.9,31.047 31.046,31.047 17.148,0 31.047,-13.901 31.047,-31.047 V -261.66 H 73.088 V -75.956 C 73.088,-34.007 40.365,0 0,0" /></g><g
           transform="translate(138.2969,541.5602)"
           id="g78"><path
             id="path80"
             style="fill:#231f20;fill-opacity:1;fill-rule:nonzero;stroke:none"
             d="M 0,0 C -40.366,0 -73.088,-34.007 -73.088,-75.956 V -261.66 h 41.538 v 184.723 c 0,17.146 13.901,31.047 31.047,31.047 17.147,0 31.047,-13.901 31.047,-31.047 V -261.66 H 73.088 V -75.956 C 73.088,-34.007 40.365,0 0,0" /></g><g
           transform="translate(236.2749,255.0109)"
           id="g82"><path
             id="path84"
             style="fill:#b77246;fill-opacity:1;fill-rule:nonzero;stroke:none"
             d="m 0,0 v -40.847 c 0,-27.876 14.459,-52.23 36,-65.443 V 0 Z" /></g></g></g></g></svg>